<svg id="Layer_1" data-name="Layer 1" xmlns="http://www.w3.org/2000/svg" xmlns:xlink="http://www.w3.org/1999/xlink" viewBox="0 0 86.14 92.98"><defs><style>.cls-1{fill:none;}.cls-2{clip-path:url(#clip-path);}.cls-3{fill:url(#linear-gradient);}.cls-4{fill:url(#linear-gradient-2);}.cls-5{fill:url(#linear-gradient-3);}.cls-6{fill:url(#linear-gradient-4);}.cls-7{clip-path:url(#clip-path-2);}.cls-8{fill:url(#linear-gradient-5);}.cls-9{fill:url(#linear-gradient-6);}.cls-10{fill:url(#linear-gradient-7);}.cls-11{fill:url(#linear-gradient-8);}.cls-12{clip-path:url(#clip-path-3);}.cls-13{fill:url(#linear-gradient-9);}.cls-14{fill:url(#linear-gradient-10);}.cls-15{fill:url(#linear-gradient-11);}.cls-16{fill:url(#linear-gradient-12);}</style><clipPath id="clip-path" transform="translate(-36.54 -31.45)"><polygon class="cls-1" points="71.71 130.59 31.09 102.21 37.69 48.13 78.56 76.51 71.71 130.59"/></clipPath><linearGradient id="linear-gradient" x1="-272.89" y1="766.18" x2="-272.89" y2="763.73" gradientTransform="matrix(14.71, 0, 0, -12.24, 4073.37, 9433.24)" gradientUnits="userSpaceOnUse"><stop offset="0" stop-color="#44b4e7"/><stop offset="1" stop-color="#4953a4"/></linearGradient><linearGradient id="linear-gradient-2" x1="-272.94" y1="765.59" x2="-272.94" y2="763.14" gradientTransform="matrix(14.71, 0, 0, -12.24, 4072.76, 9438.24)" xlink:href="#linear-gradient"/><linearGradient id="linear-gradient-3" x1="-273.01" y1="764.97" x2="-273.01" y2="762.52" gradientTransform="matrix(14.71, 0, 0, -12.24, 4072.09, 9443.48)" xlink:href="#linear-gradient"/><linearGradient id="linear-gradient-4" x1="-273.07" y1="764.35" x2="-273.07" y2="761.9" gradientTransform="matrix(14.71, 0, 0, -12.24, 4071.48, 9448.72)" xlink:href="#linear-gradient"/><clipPath id="clip-path-2" transform="translate(-36.54 -31.45)"><polygon class="cls-1" points="78.4 76.56 37.77 47.93 85.98 26.4 126.85 55.03 78.4 76.56"/></clipPath><linearGradient id="linear-gradient-5" x1="-281.51" y1="755.51" x2="-281.51" y2="753.06" gradientTransform="matrix(18.81, 0, 0, -8.82, 5364.14, 6693.69)" xlink:href="#linear-gradient"/><linearGradient id="linear-gradient-6" x1="-281.2" y1="755.09" x2="-281.2" y2="752.64" gradientTransform="matrix(18.82, 0, 0, -8.82, 5370.17, 6696.15)" xlink:href="#linear-gradient"/><linearGradient id="linear-gradient-7" x1="-280.91" y1="754.65" x2="-280.91" y2="752.2" gradientTransform="matrix(18.82, 0, 0, -8.82, 5374.04, 6699.14)" xlink:href="#linear-gradient"/><linearGradient id="linear-gradient-8" x1="-280.61" y1="754.18" x2="-280.61" y2="751.74" gradientTransform="matrix(18.82, 0, 0, -8.82, 5377.94, 6701.54)" xlink:href="#linear-gradient"/><clipPath id="clip-path-3" transform="translate(-36.54 -31.45)"><polygon class="cls-1" points="126.72 55.19 120.11 109.27 71.91 130.8 78.51 76.48 126.72 55.19"/></clipPath><linearGradient id="linear-gradient-9" x1="-290.75" y1="749.98" x2="-290.75" y2="747.53" gradientTransform="matrix(16.95, 0, 0, -9.89, 5029.98, 7477.14)" xlink:href="#linear-gradient"/><linearGradient id="linear-gradient-10" x1="-290.8" y1="749.22" x2="-290.8" y2="746.77" gradientTransform="matrix(16.95, 0, 0, -9.89, 5029.35, 7482.29)" xlink:href="#linear-gradient"/><linearGradient id="linear-gradient-11" x1="-290.85" y1="748.43" x2="-290.85" y2="745.98" gradientTransform="matrix(16.95, 0, 0, -9.89, 5028.62, 7487.32)" xlink:href="#linear-gradient"/><linearGradient id="linear-gradient-12" x1="-290.92" y1="747.64" x2="-290.92" y2="745.19" gradientTransform="matrix(16.95, 0, 0, -9.89, 5027.95, 7493.11)" xlink:href="#linear-gradient"/></defs><title>3dkodico</title><g id="Group_28" data-name="Group 28"><g id="Group_27" data-name="Group 27"><g id="Group_26" data-name="Group 26"><g id="Group_11" data-name="Group 11"><g id="Group_10" data-name="Group 10"><g class="cls-2"><g id="Group_9" data-name="Group 9"><g id="Group_8" data-name="Group 8"><g id="Group_7" data-name="Group 7"><g id="Group_6" data-name="Group 6"><g id="Group_5" data-name="Group 5"><path id="Path_9" data-name="Path 9" class="cls-3" d="M75.52,77.5l-31.81-22c-1.23-.73-2.21.25-2.45,2.2A5.83,5.83,0,0,0,43,62.84l31.82,22c1.22.73,2.2-.25,2.44-2.21a7.27,7.27,0,0,0-1.71-5.13" transform="translate(-36.54 -31.45)"/><path id="Path_10" data-name="Path 10" class="cls-4" d="M74.05,89.73l-31.81-22C41,67,40,68,39.79,69.93a5.86,5.86,0,0,0,1.71,5.14l31.82,22c1.22.74,2.2-.24,2.44-2.2a7.29,7.29,0,0,0-1.71-5.14" transform="translate(-36.54 -31.45)"/><path id="Path_11" data-name="Path 11" class="cls-5" d="M72.34,102.46,40.53,80.4c-1.23-.73-2.21.25-2.45,2.2a5.83,5.83,0,0,0,1.71,5.14l31.81,22c1.23.73,2.21-.25,2.45-2.21a6.58,6.58,0,0,0-1.71-5.13" transform="translate(-36.54 -31.45)"/><path id="Path_12" data-name="Path 12" class="cls-6" d="M70.87,115.4l-31.81-22c-1.23-.73-2.2.25-2.45,2.2a5.86,5.86,0,0,0,1.71,5.14l31.81,22c1.22.73,2.2-.25,2.44-2.21a7.29,7.29,0,0,0-1.7-5.16" transform="translate(-36.54 -31.45)"/></g></g></g></g></g></g></g></g><g id="Group_18" data-name="Group 18"><g id="Group_17" data-name="Group 17"><g class="cls-7"><g id="Group_16" data-name="Group 16"><g id="Group_15" data-name="Group 15"><g id="Group_14" data-name="Group 14"><g id="Group_13" data-name="Group 13"><g id="Group_12" data-name="Group 12"><path id="Path_14" data-name="Path 14" class="cls-8" d="M85.59,31.78,46.93,48.91c-1.47.74-1.23,2,.24,2.94a5.49,5.49,0,0,0,5.14.73L91,35.45c1.47-.73,1.23-2-.24-2.93a5.53,5.53,0,0,0-5.14-.74" transform="translate(-36.54 -31.45)"/><path id="Path_15" data-name="Path 15" class="cls-9" d="M94.64,38.15,56,55.28c-1.47.73-1.22,1.95.24,2.93a5.53,5.53,0,0,0,5.14.74L100,41.82c1.47-.74,1.22-2-.25-2.94a5.49,5.49,0,0,0-5.14-.73" transform="translate(-36.54 -31.45)"/><path id="Path_16" data-name="Path 16" class="cls-10" d="M103.94,44.75,65.28,61.88c-1.47.74-1.23,2,.24,2.94a5.49,5.49,0,0,0,5.14.73L109.33,48.4c1.46-.73,1.22-1.95-.25-2.93a6,6,0,0,0-5.14-.74" transform="translate(-36.54 -31.45)"/><path id="Path_17" data-name="Path 17" class="cls-11" d="M113.49,51.4,74.82,68.49c-1.47.73-1.22,2,.25,2.94a5.52,5.52,0,0,0,5.14.73L118.87,55c1.47-.73,1.22-2-.25-2.94a6.19,6.19,0,0,0-5.13-.69" transform="translate(-36.54 -31.45)"/></g></g></g></g></g></g></g></g><g id="Group_25" data-name="Group 25"><g id="Group_24" data-name="Group 24"><g class="cls-12"><g id="Group_23" data-name="Group 23"><g id="Group_22" data-name="Group 22"><g id="Group_21" data-name="Group 21"><g id="Group_20" data-name="Group 20"><g id="Group_19" data-name="Group 19"><path id="Path_19" data-name="Path 19" class="cls-13" d="M120.64,61.09l-36.7,16.4A7,7,0,0,0,81,82.4c-.24,2.2.49,3.43,2,2.69L119.7,68.7a6.92,6.92,0,0,0,2.94-4.9c.25-2-.73-3.18-2-2.69" transform="translate(-36.54 -31.45)"/><path id="Path_20" data-name="Path 20" class="cls-14" d="M119.18,73.81,82.47,90.21a7,7,0,0,0-2.94,4.89c-.24,2.21.49,3.43,2,2.7L118.2,81.4a6.94,6.94,0,0,0,2.93-4.89c0-2.21-.73-3.43-2-2.7" transform="translate(-36.54 -31.45)"/><path id="Path_21" data-name="Path 21" class="cls-15" d="M117.46,87,80.76,103.4a6.92,6.92,0,0,0-2.94,4.9c-.25,2.2.49,3.42,2,2.69l36.7-16.39a6.92,6.92,0,0,0,2.94-4.9c.24-2.2-.73-3.42-2-2.69" transform="translate(-36.54 -31.45)"/><path id="Path_22" data-name="Path 22" class="cls-16" d="M115.75,100.24,79,116.64a6.94,6.94,0,0,0-2.91,4.89c-.25,2.21.49,3.43,2,2.69l36.64-16.39a7,7,0,0,0,2.94-4.89c.24-2.21-.49-3.43-2-2.7" transform="translate(-36.54 -31.45)"/></g></g></g></g></g></g></g></g></g></g></g></svg>