<svg id="Layer_1" data-name="Layer 1" xmlns="http://www.w3.org/2000/svg" xmlns:xlink="http://www.w3.org/1999/xlink" viewBox="0 0 182.85 38.01"><defs><style>.cls-1{fill:none;}.cls-2{clip-path:url(#clip-path);}.cls-3{fill:url(#linear-gradient);}.cls-4{fill:url(#linear-gradient-2);}.cls-5{fill:url(#linear-gradient-3);}.cls-6{fill:url(#linear-gradient-4);}.cls-7{clip-path:url(#clip-path-2);}.cls-8{fill:url(#linear-gradient-5);}.cls-9{fill:url(#linear-gradient-6);}.cls-10{fill:url(#linear-gradient-7);}.cls-11{fill:url(#linear-gradient-8);}.cls-12{clip-path:url(#clip-path-3);}.cls-13{fill:url(#linear-gradient-9);}.cls-14{fill:url(#linear-gradient-10);}.cls-15{fill:url(#linear-gradient-11);}.cls-16{fill:url(#linear-gradient-12);}.cls-17{fill:#fff;}</style><clipPath id="clip-path" transform="translate(-2.23 -2.06)"><polygon class="cls-1" points="16.6 42.58 0 30.98 2.7 8.88 19.4 20.48 16.6 42.58"/></clipPath><linearGradient id="linear-gradient" x1="-191.99" y1="-346.8" x2="-191.99" y2="-345.8" gradientTransform="translate(2834.91 4256.69) scale(14.71 12.24)" gradientUnits="userSpaceOnUse"><stop offset="0" stop-color="#42b4e7"/><stop offset="1" stop-color="#4852a4"/></linearGradient><linearGradient id="linear-gradient-2" x1="-191.99" y1="-346.8" x2="-191.99" y2="-345.8" gradientTransform="translate(2834.3 4261.68) scale(14.71 12.24)" xlink:href="#linear-gradient"/><linearGradient id="linear-gradient-3" x1="-191.99" y1="-346.8" x2="-191.99" y2="-345.8" gradientTransform="translate(2833.58 4266.92) scale(14.71 12.24)" xlink:href="#linear-gradient"/><linearGradient id="linear-gradient-4" x1="-191.99" y1="-346.8" x2="-191.99" y2="-345.8" gradientTransform="translate(2833.02 4272.16) scale(14.71 12.24)" xlink:href="#linear-gradient"/><clipPath id="clip-path-2" transform="translate(-2.23 -2.06)"><polygon class="cls-1" points="19.33 20.5 2.73 8.8 22.43 0 39.13 11.7 19.33 20.5"/></clipPath><linearGradient id="linear-gradient-5" x1="-198.83" y1="-344.1" x2="-198.83" y2="-343.1" gradientTransform="translate(3756.5 3035.55) scale(18.81 8.82)" xlink:href="#linear-gradient"/><linearGradient id="linear-gradient-6" x1="-198.83" y1="-344.1" x2="-198.83" y2="-343.1" gradientTransform="translate(3760.41 3038) scale(18.82 8.82)" xlink:href="#linear-gradient"/><linearGradient id="linear-gradient-7" x1="-198.84" y1="-344.1" x2="-198.84" y2="-343.1" gradientTransform="translate(3764.26 3041.01) scale(18.82 8.82)" xlink:href="#linear-gradient"/><linearGradient id="linear-gradient-8" x1="-198.84" y1="-344.09" x2="-198.84" y2="-343.09" gradientTransform="translate(3768.18 3043.38) scale(18.82 8.82)" xlink:href="#linear-gradient"/><clipPath id="clip-path-3" transform="translate(-2.23 -2.06)"><polygon class="cls-1" points="39.08 11.76 36.38 33.86 16.68 42.66 19.38 20.46 39.08 11.76"/></clipPath><linearGradient id="linear-gradient-9" x1="-210.07" y1="-336.81" x2="-210.07" y2="-335.81" gradientTransform="translate(3589.94 3343.9) scale(16.95 9.89)" xlink:href="#linear-gradient"/><linearGradient id="linear-gradient-10" x1="-210.07" y1="-336.81" x2="-210.07" y2="-335.81" gradientTransform="translate(3589.3 3349.05) scale(16.95 9.89)" xlink:href="#linear-gradient"/><linearGradient id="linear-gradient-11" x1="-210.07" y1="-336.81" x2="-210.07" y2="-335.81" gradientTransform="translate(3588.47 3354.05) scale(16.95 9.89)" xlink:href="#linear-gradient"/><linearGradient id="linear-gradient-12" x1="-210.07" y1="-336.81" x2="-210.07" y2="-335.81" gradientTransform="translate(3587.81 3359.87) scale(16.95 9.89)" xlink:href="#linear-gradient"/></defs><title>3dkod</title><g id="Group_28" data-name="Group 28"><g id="Group_27" data-name="Group 27"><g id="Group_26" data-name="Group 26"><g id="Group_11" data-name="Group 11"><g id="Group_10" data-name="Group 10"><g class="cls-2"><g id="Group_9" data-name="Group 9"><g id="Group_8" data-name="Group 8"><g id="Group_7" data-name="Group 7"><g id="Group_6" data-name="Group 6"><g id="Group_5" data-name="Group 5"><path id="Path_9" data-name="Path 9" class="cls-3" d="M18.16,20.88l-13-9c-.5-.3-.9.1-1,.9a2.38,2.38,0,0,0,.7,2.1l13,9c.5.3.9-.1,1-.9a3,3,0,0,0-.7-2.1" transform="translate(-2.23 -2.06)"/><path id="Path_10" data-name="Path 10" class="cls-4" d="M17.56,25.88l-13-9c-.5-.3-.9.1-1,.9a2.38,2.38,0,0,0,.7,2.1l13,9c.5.3.9-.1,1-.9a3,3,0,0,0-.7-2.1" transform="translate(-2.23 -2.06)"/><path id="Path_11" data-name="Path 11" class="cls-5" d="M16.86,31.08l-13-9c-.5-.3-.9.1-1,.9a2.38,2.38,0,0,0,.7,2.1l13,9c.5.3.9-.1,1-.9a2.7,2.7,0,0,0-.7-2.1" transform="translate(-2.23 -2.06)"/><path id="Path_12" data-name="Path 12" class="cls-6" d="M16.26,36.38l-13-9c-.5-.3-.9.1-1,.9a2.38,2.38,0,0,0,.7,2.1l13,9c.5.3.9-.1,1-.9a3,3,0,0,0-.7-2.1" transform="translate(-2.23 -2.06)"/></g></g></g></g></g></g></g></g><g id="Group_18" data-name="Group 18"><g id="Group_17" data-name="Group 17"><g class="cls-7"><g id="Group_16" data-name="Group 16"><g id="Group_15" data-name="Group 15"><g id="Group_14" data-name="Group 14"><g id="Group_13" data-name="Group 13"><g id="Group_12" data-name="Group 12"><path id="Path_14" data-name="Path 14" class="cls-8" d="M22.27,2.2l-15.8,7c-.6.3-.5.8.1,1.2a2.25,2.25,0,0,0,2.1.3l15.8-7c.6-.3.5-.8-.1-1.2a2.25,2.25,0,0,0-2.1-.3" transform="translate(-2.23 -2.06)"/><path id="Path_15" data-name="Path 15" class="cls-9" d="M26,4.8l-15.8,7c-.6.3-.5.8.1,1.2a2.25,2.25,0,0,0,2.1.3l15.8-7c.6-.3.5-.8-.1-1.2A2.25,2.25,0,0,0,26,4.8" transform="translate(-2.23 -2.06)"/><path id="Path_16" data-name="Path 16" class="cls-10" d="M29.77,7.5,14,14.5c-.6.3-.5.8.1,1.2a2.25,2.25,0,0,0,2.1.3L32,9c.6-.3.5-.8-.1-1.2a2.46,2.46,0,0,0-2.1-.3" transform="translate(-2.23 -2.06)"/><path id="Path_17" data-name="Path 17" class="cls-11" d="M33.67,10.2l-15.8,7c-.6.3-.5.8.1,1.2a2.25,2.25,0,0,0,2.1.3l15.8-7c.6-.3.5-.8-.1-1.2a2.52,2.52,0,0,0-2.1-.3" transform="translate(-2.23 -2.06)"/></g></g></g></g></g></g></g></g><g id="Group_25" data-name="Group 25"><g id="Group_24" data-name="Group 24"><g class="cls-12"><g id="Group_23" data-name="Group 23"><g id="Group_22" data-name="Group 22"><g id="Group_21" data-name="Group 21"><g id="Group_20" data-name="Group 20"><g id="Group_19" data-name="Group 19"><path id="Path_19" data-name="Path 19" class="cls-13" d="M36.6,14.18l-15,6.7a2.84,2.84,0,0,0-1.2,2c-.1.9.2,1.4.8,1.1l15-6.7a2.84,2.84,0,0,0,1.2-2c.1-.8-.3-1.3-.8-1.1" transform="translate(-2.23 -2.06)"/><path id="Path_20" data-name="Path 20" class="cls-14" d="M36,19.38l-15,6.7a2.84,2.84,0,0,0-1.2,2c-.1.9.2,1.4.8,1.1l15-6.7a2.84,2.84,0,0,0,1.2-2c0-.9-.3-1.4-.8-1.1" transform="translate(-2.23 -2.06)"/><path id="Path_21" data-name="Path 21" class="cls-15" d="M35.3,24.78l-15,6.7a2.84,2.84,0,0,0-1.2,2c-.1.9.2,1.4.8,1.1l15-6.7a2.84,2.84,0,0,0,1.2-2c.1-.9-.3-1.4-.8-1.1" transform="translate(-2.23 -2.06)"/><path id="Path_22" data-name="Path 22" class="cls-16" d="M34.6,30.18l-15,6.7a2.84,2.84,0,0,0-1.2,2c-.1.9.2,1.4.8,1.1l15-6.7a2.84,2.84,0,0,0,1.2-2c.1-.9-.2-1.4-.8-1.1" transform="translate(-2.23 -2.06)"/></g></g></g></g></g></g></g></g></g></g></g><g id="Group_29" data-name="Group 29"><path id="Path_24" data-name="Path 24" class="cls-17" d="M59.08,7.17A10.44,10.44,0,0,1,64,8.37a8.13,8.13,0,0,1,3.1,3,6.53,6.53,0,0,1,1,3.6,7.79,7.79,0,0,1-.9,3.7,7,7,0,0,1-2.6,2.8,10.41,10.41,0,0,1,3.8,3.1,8,8,0,0,1,1.4,4.5,8.63,8.63,0,0,1-1.4,4.7,10.1,10.1,0,0,1-3.9,3.5,11.33,11.33,0,0,1-5.4,1.3,10.94,10.94,0,0,1-5.3-1.3,9.78,9.78,0,0,1-3.6-3.1,6.57,6.57,0,0,1-1.3-3.6,2.46,2.46,0,0,1,1-2,3.57,3.57,0,0,1,2.3-.8q1.2,0,2.4,1.8a23.48,23.48,0,0,0,1.9,2.5,3.82,3.82,0,0,0,2.7.7,4.55,4.55,0,0,0,2-.5,4,4,0,0,0,1.5-1.4,2.88,2.88,0,0,0,.5-2,3.32,3.32,0,0,0-.9-2.7,5.58,5.58,0,0,0-2.8-1,9.24,9.24,0,0,1-2.7-.8c-.6-.3-.8-1-.8-2.2a2.46,2.46,0,0,1,.8-2.1,6.71,6.71,0,0,1,2.3-1,6.71,6.71,0,0,0,2.3-1,2.65,2.65,0,0,0,.8-2.2,2.79,2.79,0,0,0-.8-2,2.65,2.65,0,0,0-2.2-.8,3.64,3.64,0,0,0-2.1.5,5.72,5.72,0,0,0-1.5,1.6,10.1,10.1,0,0,1-1.3,1.6,2.46,2.46,0,0,1-1.5.5,2.52,2.52,0,0,1-2-.9,3.49,3.49,0,0,1-.8-2.2,4.63,4.63,0,0,1,.8-2.5,11.5,11.5,0,0,1,2.1-2.3,10.81,10.81,0,0,1,3-1.6A7.94,7.94,0,0,1,59.08,7.17Z" transform="translate(-2.23 -2.06)"/><path id="Path_25" data-name="Path 25" class="cls-17" d="M75,34.87V11a3.41,3.41,0,0,1,.9-2.4,3.41,3.41,0,0,1,2.4-.9h7.1a17.6,17.6,0,0,1,6.4,1.1,13.76,13.76,0,0,1,4.7,3.1,13.56,13.56,0,0,1,2.9,4.9,20.52,20.52,0,0,1,1,6.5,18.15,18.15,0,0,1-1,6.1,12.86,12.86,0,0,1-7.6,7.7,15,15,0,0,1-5.9,1h-7.4a4.53,4.53,0,0,1-1.6-.3,3.25,3.25,0,0,1-1.3-1A2.7,2.7,0,0,1,75,34.87Zm6.4-21.3v18.6h4.3a8,8,0,0,0,4.5-1.2,7.63,7.63,0,0,0,2.7-3.2,12.67,12.67,0,0,0,.9-4.7,13.72,13.72,0,0,0-.9-4.9,6.51,6.51,0,0,0-2.8-3.3,8.8,8.8,0,0,0-4.8-1.2Z" transform="translate(-2.23 -2.06)"/><path id="Path_26" data-name="Path 26" class="cls-17" d="M120.58,36.07a2.17,2.17,0,0,1-.5,1.4,2,2,0,0,1-2.7,0,1.87,1.87,0,0,1-.5-1.4V9.57a2.17,2.17,0,0,1,.5-1.4,2,2,0,0,1,2.7,0,1.87,1.87,0,0,1,.5,1.4v10.9l13-11.7a7,7,0,0,1,1-.8,2.1,2.1,0,0,1,1.1-.4,1.75,1.75,0,0,1,1.2.4,1.29,1.29,0,0,1,.4,1.2,1.64,1.64,0,0,1-.2,1,3.39,3.39,0,0,1-.6.6l-12.5,11,13.6,12.9a1.56,1.56,0,0,1,.6.8,1.06,1.06,0,0,1,.1.8,1.85,1.85,0,0,1-.5,1.2,2.11,2.11,0,0,1-1.3.5,2,2,0,0,1-.8-.1,3.59,3.59,0,0,1-1-.7l-14.2-13.7Z" transform="translate(-2.23 -2.06)"/><path id="Path_27" data-name="Path 27" class="cls-17" d="M142.08,22.47a11.28,11.28,0,0,1,1.9-3.6,9.26,9.26,0,0,1,3.1-2.5,9.75,9.75,0,0,1,8.5,0,9.5,9.5,0,0,1,3.1,2.5,10.41,10.41,0,0,1,1.9,3.6,13.72,13.72,0,0,1,0,8.5,11.28,11.28,0,0,1-1.9,3.6,9.26,9.26,0,0,1-3.1,2.5,9.75,9.75,0,0,1-8.5,0,9.5,9.5,0,0,1-3.1-2.5,10.41,10.41,0,0,1-1.9-3.6A13.72,13.72,0,0,1,142.08,22.47Zm3.4,7.1a8.49,8.49,0,0,0,1.1,2.6,6.87,6.87,0,0,0,1.9,1.9,6,6,0,0,0,5.8,0,5.75,5.75,0,0,0,1.9-1.9,8.49,8.49,0,0,0,1.1-2.6,13.69,13.69,0,0,0,0-5.7,8.49,8.49,0,0,0-1.1-2.6,5.75,5.75,0,0,0-1.9-1.9,6,6,0,0,0-5.8,0,5.75,5.75,0,0,0-1.9,1.9,8.49,8.49,0,0,0-1.1,2.6A13.69,13.69,0,0,0,145.48,29.57Z" transform="translate(-2.23 -2.06)"/><path id="Path_28" data-name="Path 28" class="cls-17" d="M181.28,35h0c-1.2,2.1-3.2,3.1-6.1,3.1a9.78,9.78,0,0,1-4.1-.9,10.67,10.67,0,0,1-3.1-2.5,10.41,10.41,0,0,1-1.9-3.6,13.72,13.72,0,0,1,0-8.5A10.41,10.41,0,0,1,168,19a9.5,9.5,0,0,1,3.1-2.5,8.46,8.46,0,0,1,4.1-.9,7.61,7.61,0,0,1,2.1.3,8.65,8.65,0,0,1,1.7.7,6.42,6.42,0,0,1,1.3,1,4.81,4.81,0,0,1,.9,1.1h.1V7.17a2.69,2.69,0,0,1,.5-1.5,1.55,1.55,0,0,1,1.4-.5,2.39,2.39,0,0,1,1.4.5,2,2,0,0,1,.5,1.5v29a2.69,2.69,0,0,1-.5,1.5,2,2,0,0,1-2.7,0,2,2,0,0,1-.5-1.5Zm0-11.1a8.49,8.49,0,0,0-1.1-2.6,5.75,5.75,0,0,0-1.9-1.9,6,6,0,0,0-5.8,0,5.75,5.75,0,0,0-1.9,1.9,8.49,8.49,0,0,0-1.1,2.6,13.69,13.69,0,0,0,0,5.7,8.49,8.49,0,0,0,1.1,2.6,6.87,6.87,0,0,0,1.9,1.9,6,6,0,0,0,5.8,0,5.75,5.75,0,0,0,1.9-1.9,8.49,8.49,0,0,0,1.1-2.6A11,11,0,0,0,181.28,23.87Z" transform="translate(-2.23 -2.06)"/></g></svg>