<svg id="Layer_1" data-name="Layer 1" xmlns="http://www.w3.org/2000/svg" viewBox="0 0 841.89 222.52"><defs><style>.cls-1{fill:#202f54;}.cls-2{fill:#2c4e7e;}.cls-3{fill:#2f5d94;}.cls-4{fill:#2a90cf;}</style></defs><title>contactbg</title><g id="Group_30" data-name="Group 30"><path id="Path_839" data-name="Path 839" class="cls-1" d="M0,25.26,76.71,7.48,153.41,0l75.77,34.61,76.71-9.35,76.7-7.49,76.71,8.42L536,13.1l76.71,23.38L688.48,3.74l76.7,22.45L841.89,1.87V105.7H0Z" transform="translate(0)"/><path id="Path_840" data-name="Path 840" class="cls-2" d="M0,26.19l76.71-9.35,76.7,9.35,75.77,8.42,76.71-3.74L382.59,44l76.71-3.75,76.7-.93,76.71-7.49,75.77,5.62,76.7-14,76.71-4.68v87H0Z" transform="translate(0)"/><path id="Path_841" data-name="Path 841" class="cls-3" d="M0,37.42,76.71,43l76.7,8.42,75.77,11.22,76.71-25.25,76.7,24.32L459.3,49.58,536,38.35l76.71,13.1,75.77-10.29,76.7,4.68,76.71,5.61V105.7H0Z" transform="translate(0)"/><path id="Path_842" data-name="Path 842" class="cls-4" d="M0,60.8,76.71,77.64l76.7-13.1,75.77-3.74,76.71,3.74L382.59,73l76.71-3.74L536,76.71l76.71-14,75.77.94,76.7-.94,76.71.94V105.7H0Z" transform="translate(0)"/></g><g id="Group_31" data-name="Group 31"><path id="Path_843" data-name="Path 843" class="cls-1" d="M841.89,197.27,765.18,215l-76.7,7.48-75.77-34.61L536,197.27l-76.7,7.48-76.71-8.42-76.7,13.1L229.18,186l-75.77,32.74-76.7-22.45L0,220.65V116.82H841.89Z" transform="translate(0)"/><path id="Path_844" data-name="Path 844" class="cls-2" d="M841.89,196.33l-76.71,9.35-76.7-9.35-75.77-8.42L536,191.65l-76.7-13.09-76.71,3.74-76.7.93-76.71,7.49-75.77-5.62-76.7,14L0,203.81v-87H841.89Z" transform="translate(0)"/><path id="Path_845" data-name="Path 845" class="cls-3" d="M841.89,185.1l-76.71-5.61-76.7-8.42-75.77-11.22L536,185.1l-76.7-24.32-76.71,12.16-76.7,11.23-76.71-13.1-75.77,10.29-76.7-4.67L0,171.07V116.82H841.89Z" transform="translate(0)"/><path id="Path_846" data-name="Path 846" class="cls-4" d="M841.89,161.72l-76.71-16.84L688.48,158l-75.77,3.74L536,158l-76.7-8.42-76.71,3.74-76.7-7.48-76.71,14-75.77-.94-76.7.94L0,158.91V116.82H841.89Z" transform="translate(0)"/></g><rect id="Rectangle_19" data-name="Rectangle 19" class="cls-4" y="81.05" width="841.89" height="49.31"/></svg>