<?xml version="1.0" encoding="utf-8"?>
<!-- Generator: Adobe Illustrator 23.0.1, SVG Export Plug-In . SVG Version: 6.00 Build 0)  -->
<svg version="1.1" id="Layer_1" xmlns="http://www.w3.org/2000/svg" xmlns:xlink="http://www.w3.org/1999/xlink" x="0px" y="0px"
	 viewBox="0 0 777.2 513.8" style="enable-background:new 0 0 777.2 513.8;" xml:space="preserve">
<style type="text/css">
	.st0{fill:#2C7FC1;stroke:#2C7FC1;stroke-width:0.4083;stroke-linejoin:bevel;}
	.st1{fill:#2C4E7E;stroke:#2C4E7E;stroke-width:0.4083;stroke-linejoin:bevel;}
	.st2{fill:#2A90CF;stroke:#2A90CF;stroke-width:0.4083;stroke-linejoin:bevel;}
	.st3{fill:#110E1C;stroke:#110E1C;stroke-width:0.4083;stroke-linejoin:bevel;}
	.st4{fill:#202F54;stroke:#202F54;stroke-width:0.4083;stroke-linejoin:bevel;}
	.st5{fill:#2E6FAB;stroke:#2E6FAB;stroke-width:0.4083;stroke-linejoin:bevel;}
	.st6{fill:#31A0DA;stroke:#31A0DA;stroke-width:0.4083;stroke-linejoin:bevel;}
	.st7{fill:#283E69;stroke:#283E69;stroke-width:0.4083;stroke-linejoin:bevel;}
	.st8{fill:#2F5D94;stroke:#2F5D94;stroke-width:0.4083;stroke-linejoin:bevel;}
	.st9{fill:#192141;stroke:#192141;stroke-width:0.4083;stroke-linejoin:bevel;}
	.st10{fill:#12162E;stroke:#12162E;stroke-width:0.4083;stroke-linejoin:bevel;}
</style>
<g id="low-poly-grid-haikei" transform="translate(34.5 13.5)">
	<path id="Path_502" class="st0" d="M378,238.1l9.5-5.3v-28.4L378,238.1z"/>
	<path id="Path_503" class="st1" d="M387.4,204.3l-40.4,7.1l30.9,26.6L387.4,204.3z"/>
	<path id="Path_504" class="st2" d="M387.4,204.3l-41.2,0.9l0.9,6.2L387.4,204.3z"/>
	<path id="Path_505" class="st3" d="M346.2,205.2l-30.9,27.5l31.8-21.3L346.2,205.2z"/>
	<path id="Path_506" class="st3" d="M347,211.4l-31.8,21.3l62.7,5.3L347,211.4z"/>
	<path id="Path_507" class="st4" d="M387.4,204.3l-61.9-25.8l20.6,26.6L387.4,204.3z"/>
	<path id="Path_508" class="st0" d="M346.2,205.2l-20.6-26.6l-10.3,54.2L346.2,205.2z"/>
	<path id="Path_509" class="st5" d="M291.2,200.8l1.7,26.6l22.3,5.3L291.2,200.8z"/>
	<path id="Path_510" class="st3" d="M325.6,178.6l-34.4,22.2l24.1,32L325.6,178.6z"/>
	<path id="Path_511" class="st1" d="M360.8,323.3l57.6-22.2L378,238.1L360.8,323.3z"/>
	<path id="Path_512" class="st6" d="M378,238.1l40.4,63.1l-30.9-68.4L378,238.1z"/>
	<path id="Path_513" class="st7" d="M387.4,232.7l91.9-24l-91.9-4.4V232.7z"/>
	<path id="Path_514" class="st1" d="M295.5,271.8l82.5-33.7l-62.7-5.3L295.5,271.8z"/>
	<path id="Path_515" class="st8" d="M259.4,228.3l36.1,43.5l-2.6-44.4L259.4,228.3z"/>
	<path id="Path_516" class="st8" d="M292.9,227.4l2.6,44.4l19.8-39.1L292.9,227.4z"/>
	<path id="Path_517" class="st5" d="M295.5,271.8l65.3,51.5l17.2-85.3L295.5,271.8z"/>
	<path id="Path_518" class="st9" d="M478.5,276.3l0.9-67.5l-91.9,24L478.5,276.3z"/>
	<path id="Path_519" class="st2" d="M387.4,204.3l1.7-111l-63.6,85.3L387.4,204.3z"/>
	<path id="Path_520" class="st8" d="M291.2,200.8l-31.8,27.5l33.5-0.9L291.2,200.8z"/>
	<path id="Path_521" class="st2" d="M418.4,301.1l60.2-24.9l-91.1-43.5L418.4,301.1z"/>
	<path id="Path_522" class="st8" d="M537,191.9l-56.7-32l-0.9,48.8L537,191.9z"/>
	<path id="Path_523" class="st0" d="M479.4,208.8l0.9-48.8l-92.8,44.4L479.4,208.8z"/>
	<path id="Path_524" class="st7" d="M478.5,276.3l15.5-44.4l-14.6-23.1L478.5,276.3z"/>
	<path id="Path_525" class="st1" d="M425.2,101.3l-36.1-8l-1.7,111L425.2,101.3z"/>
	<path id="Path_526" class="st2" d="M325.6,178.6l-71.3-57.7l37,79.9L325.6,178.6z"/>
	<path id="Path_527" class="st6" d="M291.2,200.8l-56.7,25.8l24.9,1.8L291.2,200.8z"/>
	<path id="Path_528" class="st0" d="M480.2,159.9l-55-58.6l-37.8,103L480.2,159.9z"/>
	<path id="Path_529" class="st1" d="M418.4,301.1l46.4,5.3l13.7-30.2L418.4,301.1z"/>
	<path id="Path_530" class="st0" d="M389.1,387.3l75.6-80.8l-46.4-5.3L389.1,387.3z"/>
	<path id="Path_531" class="st3" d="M318.7,355.3l38.7-1.8l3.4-30.2L318.7,355.3z"/>
	<path id="Path_532" class="st7" d="M360.8,323.3l28.4,63.9l29.2-86.1L360.8,323.3z"/>
	<path id="Path_533" class="st1" d="M318.7,355.3l42.1-32l-65.3-51.5L318.7,355.3z"/>
	<path id="Path_534" class="st6" d="M412.4,56l-61,21.3l37.8,16L412.4,56z"/>
	<path id="Path_535" class="st0" d="M389.1,93.3l-37.8-16l-25.8,101.2L389.1,93.3z"/>
	<path id="Path_536" class="st1" d="M254.2,120.9l-19.8,105.7l56.7-25.8L254.2,120.9z"/>
	<path id="Path_537" class="st10" d="M233.6,264.7l18,34.6l43.8-27.5L233.6,264.7z"/>
	<path id="Path_538" class="st7" d="M251.7,299.3l67,55.9l-23.2-83.5L251.7,299.3z"/>
	<path id="Path_539" class="st2" d="M233.6,264.7l61.9,7.1l-36.1-43.5L233.6,264.7z"/>
	<path id="Path_540" class="st10" d="M234.5,226.5l-0.9,38.2l25.8-36.4L234.5,226.5z"/>
	<path id="Path_541" class="st6" d="M478.5,276.3l38.7-23.1L494,231.9L478.5,276.3z"/>
	<path id="Path_542" class="st8" d="M494,231.9l43-40l-57.6,16.9L494,231.9z"/>
	<path id="Path_543" class="st2" d="M532.7,320.7l-15.5-67.5l-38.7,23.1L532.7,320.7z"/>
	<path id="Path_544" class="st9" d="M351.3,77.3l-97.1,43.5l71.3,57.7L351.3,77.3z"/>
	<path id="Path_545" class="st6" d="M331.6,373.9H347l10.3-20.4L331.6,373.9z"/>
	<path id="Path_546" class="st4" d="M357.4,353.5l31.8,33.7l-28.4-63.9L357.4,353.5z"/>
	<path id="Path_547" class="st6" d="M295.5,395.3l36.1-21.3l-12.9-18.6L295.5,395.3z"/>
	<path id="Path_548" class="st0" d="M318.7,355.3l12.9,18.6l25.8-20.4L318.7,355.3z"/>
	<path id="Path_549" class="st10" d="M424.4,56h-12l12.9,45.3L424.4,56z"/>
	<path id="Path_550" class="st4" d="M425.2,101.3L412.4,56l-23.2,37.3L425.2,101.3z"/>
	<path id="Path_551" class="st4" d="M359.1,513.4l30.1-126.1l-43,126.1H359.1z"/>
	<path id="Path_552" class="st10" d="M347,373.9l42.1,13.3l-31.8-33.7L347,373.9z"/>
	<path id="Path_553" class="st4" d="M464.8,306.5l67.9,14.2l-54.1-44.4L464.8,306.5z"/>
	<path id="Path_554" class="st10" d="M517.2,253.2l21.5-25.8l-44.7,4.4L517.2,253.2z"/>
	<path id="Path_555" class="st7" d="M523.2,90.7L424.4,56l0.9,45.3L523.2,90.7z"/>
	<path id="Path_556" class="st9" d="M538.7,227.4l-1.7-35.5l-43,40L538.7,227.4z"/>
	<path id="Path_557" class="st10" d="M523.2,90.7l-98,10.7l55,58.6L523.2,90.7z"/>
	<path id="Path_558" class="st1" d="M424.4,56l-8.6-5.3l-3.4,5.3H424.4z"/>
	<path id="Path_559" class="st1" d="M412.4,56l-30.9-43.5l-30.1,64.8L412.4,56z"/>
	<path id="Path_560" class="st6" d="M188.1,189.2l6,56.8l40.4-19.5L188.1,189.2z"/>
	<path id="Path_561" class="st3" d="M234.5,226.5l-40.4,19.5l39.5,18.6L234.5,226.5z"/>
	<path id="Path_562" class="st9" d="M233.6,264.7l-10.3,62.2l28.4-27.5L233.6,264.7z"/>
	<path id="Path_563" class="st1" d="M251.7,299.3l-2.6,90.6l69.6-34.6L251.7,299.3z"/>
	<path id="Path_564" class="st0" d="M182,315.3l41.2,11.5l10.3-62.2L182,315.3z"/>
	<path id="Path_565" class="st1" d="M525.8,345.5l6.9-24.9l-67.9-14.2L525.8,345.5z"/>
	<path id="Path_566" class="st0" d="M517.2,253.2l41.2,75.5l-19.8-101.2L517.2,253.2z"/>
	<path id="Path_567" class="st8" d="M254.2,120.9l-66.2,68.4l46.4,37.3L254.2,120.9z"/>
	<path id="Path_568" class="st8" d="M249.1,389.9l46.4,5.3l23.2-40L249.1,389.9z"/>
	<path id="Path_569" class="st3" d="M331.6,373.9l-36.1,21.3l51.6-21.3H331.6z"/>
	<path id="Path_570" class="st10" d="M538.7,227.4l24.1-13.3L537,191.9L538.7,227.4z"/>
	<path id="Path_571" class="st2" d="M543.8,105.8l-20.6-15.1l-43,69.3L543.8,105.8z"/>
	<path id="Path_572" class="st10" d="M558.4,328.7l4.3-114.6l-24.1,13.3L558.4,328.7z"/>
	<path id="Path_573" class="st4" d="M543.8,105.8l-63.6,54.2l56.7,32L543.8,105.8z"/>
	<path id="Path_574" class="st2" d="M439-19.5l-57.6,32l34.4,38.2L439-19.5z"/>
	<path id="Path_575" class="st10" d="M230.2,28.5l-7.7,63.9l31.8,28.4L230.2,28.5z"/>
	<path id="Path_576" class="st6" d="M254.2,120.9l-31.8-28.4l-34.4,96.8L254.2,120.9z"/>
	<path id="Path_577" class="st4" d="M230.2,28.5l24.1,92.4l97.1-43.5L230.2,28.5z"/>
	<path id="Path_578" class="st1" d="M475.1,405l50.7-59.5l-61-39.1L475.1,405z"/>
	<path id="Path_579" class="st9" d="M532.7,320.7l25.8,8l-41.2-75.5L532.7,320.7z"/>
	<path id="Path_580" class="st1" d="M367.7-19.5l13.7,32l57.6-32H367.7z"/>
	<path id="Path_581" class="st8" d="M415.8,50.7l-34.4-38.2L412.4,56L415.8,50.7z"/>
	<path id="Path_582" class="st6" d="M359.1,513.4l83.4-99.5l-53.3-26.6L359.1,513.4z"/>
	<path id="Path_583" class="st8" d="M389.1,387.3l53.3,26.6l22.3-107.5L389.1,387.3z"/>
	<path id="Path_584" class="st9" d="M613.4,199l-69.6-93.2l-6.9,86.1L613.4,199z"/>
	<path id="Path_585" class="st9" d="M442.4,413.9l7.7-0.9l14.6-106.6L442.4,413.9z"/>
	<path id="Path_586" class="st5" d="M450.2,413l24.9-8l-10.3-98.6L450.2,413z"/>
	<path id="Path_587" class="st3" d="M148.5,159.9l19.8,31.1l19.8-1.8L148.5,159.9z"/>
	<path id="Path_588" class="st5" d="M188.1,189.2l-19.8,1.8l25.8,55.1L188.1,189.2z"/>
	<path id="Path_589" class="st7" d="M194.1,246.1l-12,69.3l51.6-50.6L194.1,246.1z"/>
	<path id="Path_590" class="st1" d="M223.3,326.9l25.8,63.1l2.6-90.6L223.3,326.9z"/>
	<path id="Path_591" class="st6" d="M346.2,513.4l43-126.1L347,373.9L346.2,513.4z"/>
	<path id="Path_592" class="st1" d="M548.1,373.1l10.3-44.4l-32.7,16.9L548.1,373.1z"/>
	<path id="Path_593" class="st2" d="M525.8,345.5l32.7-16.9l-25.8-8L525.8,345.5z"/>
	<path id="Path_594" class="st1" d="M150.3,329.5l31.8-14.2l-72.2-77.3L150.3,329.5z"/>
	<path id="Path_595" class="st7" d="M223.3,326.9l-5.2,55.1l30.9,8L223.3,326.9z"/>
	<path id="Path_596" class="st8" d="M367.7-19.5l-5.2,17.8l18.9,14.2L367.7-19.5z"/>
	<path id="Path_597" class="st4" d="M381.4,12.5L362.5-1.7l-11.2,79L381.4,12.5z"/>
	<path id="Path_598" class="st6" d="M230.2,28.5l-24.9,50.6l17.2,13.3L230.2,28.5z"/>
	<path id="Path_599" class="st1" d="M152,125.3l-3.4,34.6l39.5,29.3L152,125.3z"/>
	<path id="Path_600" class="st4" d="M182,315.3l36.1,66.6l5.2-55.1L182,315.3z"/>
	<path id="Path_601" class="st5" d="M475.1,405l73-32l-22.3-27.5L475.1,405z"/>
	<path id="Path_602" class="st1" d="M439-19.5l-23.2,70.2l8.6,5.3L439-19.5z"/>
	<path id="Path_603" class="st5" d="M301.5-19.5l-71.3,48l121.2,48.8L301.5-19.5z"/>
	<path id="Path_604" class="st6" d="M152,125.3l36.1,63.9l34.4-96.8L152,125.3z"/>
	<path id="Path_605" class="st7" d="M109.9,238.1l72.2,77.3l12-69.3L109.9,238.1z"/>
	<path id="Path_606" class="st1" d="M301.5-19.5l49.8,96.8l11.2-79L301.5-19.5z"/>
	<path id="Path_607" class="st4" d="M205.3,79.1L152,125.3l70.5-32.9L205.3,79.1z"/>
	<path id="Path_608" class="st3" d="M530.1,445.9l27.5-71.9l-9.5-0.9L530.1,445.9z"/>
	<path id="Path_609" class="st9" d="M548.1,373.1l9.5,0.9l0.9-45.3L548.1,373.1z"/>
	<path id="Path_610" class="st4" d="M614.3,205.2l-0.9-6.2l-50.7,15.1L614.3,205.2z"/>
	<path id="Path_611" class="st1" d="M218.1,381.9l39.5,51.5l-8.6-43.5L218.1,381.9z"/>
	<path id="Path_612" class="st8" d="M249.1,389.9l8.6,43.5l37.8-38.2L249.1,389.9z"/>
	<path id="Path_613" class="st4" d="M496.6-19.5L424.4,56l98.8,34.6L496.6-19.5z"/>
	<path id="Path_614" class="st2" d="M496.6-19.5H439L424.4,56L496.6-19.5z"/>
	<path id="Path_615" class="st10" d="M167.4,83.6L152,125.3l53.3-46.2L167.4,83.6z"/>
	<path id="Path_616" class="st6" d="M614.3,205.2l37,39.1l-4.3-17.8L614.3,205.2z"/>
	<path id="Path_617" class="st3" d="M562.7,214.1l50.7-15.1l-76.5-7.1L562.7,214.1z"/>
	<path id="Path_618" class="st3" d="M614.3,205.2l-51.6,8.9l88.5,30.2L614.3,205.2z"/>
	<path id="Path_619" class="st6" d="M367.7-19.5h-66.2l61,17.8L367.7-19.5z"/>
	<path id="Path_620" class="st5" d="M152,22.3l15.5,61.3l37.8-4.4L152,22.3z"/>
	<path id="Path_621" class="st9" d="M564.5,55.1l-2.6,1.8l43.8,14.2L564.5,55.1z"/>
	<path id="Path_622" class="st1" d="M543.8,105.8l18-48.8l-38.7,33.7L543.8,105.8z"/>
	<path id="Path_623" class="st0" d="M605.7,71.1l-43.8-14.2l-18,48.8L605.7,71.1z"/>
	<path id="Path_624" class="st5" d="M561.9,56.9l-1.7-7.1l-37,40.8L561.9,56.9z"/>
	<path id="Path_625" class="st6" d="M564.5,55.1l-4.3-5.3l1.7,7.1L564.5,55.1z"/>
	<path id="Path_626" class="st2" d="M182,315.3l-38.7,55.1l74.8,11.5L182,315.3z"/>
	<path id="Path_627" class="st5" d="M181.2,439.7l60.2,31.1l16.3-37.3L181.2,439.7z"/>
	<path id="Path_628" class="st8" d="M109.9,238.1l84.2,8L168.3,191L109.9,238.1z"/>
	<path id="Path_629" class="st5" d="M496.6-19.5L436.4-31l2.6,11.5H496.6z"/>
	<path id="Path_630" class="st5" d="M439-19.5L436.4-31l-68.7,11.5H439z"/>
	<path id="Path_631" class="st1" d="M367.7-19.5L436.4-31L301.5-19.5H367.7z"/>
	<path id="Path_632" class="st4" d="M167.4,83.6l-18.9,23.1l3.4,18.6L167.4,83.6z"/>
	<path id="Path_633" class="st9" d="M152,125.3l-44.7,43.5l41.2-8.9L152,125.3z"/>
	<path id="Path_634" class="st0" d="M436.4-31L260.2-19.5h41.2L436.4-31z"/>
	<path id="Path_635" class="st8" d="M301.5-19.5h-41.2l-30.1,48L301.5-19.5z"/>
	<path id="Path_636" class="st9" d="M230.2,28.5L152,22.3l53.3,56.8L230.2,28.5z"/>
	<path id="Path_637" class="st5" d="M564.5,55.1l1.7-15.1l-6,9.8L564.5,55.1z"/>
	<path id="Path_638" class="st10" d="M560.2,49.8l-63.6-69.3l26.6,110.1L560.2,49.8z"/>
	<path id="Path_639" class="st1" d="M598,55.1L566.2,40l-1.7,15.1H598z"/>
	<path id="Path_640" class="st7" d="M566.2,40l-69.6-59.5l63.6,69.3L566.2,40z"/>
	<path id="Path_641" class="st1" d="M107.3,168.8l61,22.2l-19.8-31.1L107.3,168.8z"/>
	<path id="Path_642" class="st3" d="M99.6,199.9l10.3,38.2l58.4-47.1L99.6,199.9z"/>
	<path id="Path_643" class="st6" d="M436.4-31L239.6-19.5h20.6L436.4-31z"/>
	<path id="Path_644" class="st5" d="M260.2-19.5h-20.6l-9.5,48L260.2-19.5z"/>
	<path id="Path_645" class="st2" d="M129.6,50.7l-37.8,97.7l56.7-41.7L129.6,50.7z"/>
	<path id="Path_646" class="st2" d="M467.3,513.4l62.7-67.5l-55-40.8L467.3,513.4z"/>
	<path id="Path_647" class="st5" d="M475.1,405l55,40.8l18-72.8L475.1,405z"/>
	<path id="Path_648" class="st3" d="M467.3,513.4l7.7-108.3l-24.9,8L467.3,513.4z"/>
	<path id="Path_649" class="st3" d="M450.2,513.4V413l-7.7,0.9L450.2,513.4z"/>
	<path id="Path_650" class="st5" d="M91.8,148.4l15.5,20.4l44.7-43.5L91.8,148.4z"/>
	<path id="Path_651" class="st7" d="M614.3,205.2l27.5-31.1L613.4,199L614.3,205.2z"/>
	<path id="Path_652" class="st2" d="M613.4,199l22.3-54.2l-91.9-39.1L613.4,199z"/>
	<path id="Path_653" class="st8" d="M646.9,226.5l-5.2-52.4l-27.5,31.1L646.9,226.5z"/>
	<path id="Path_654" class="st8" d="M562.7,214.1l-4.3,114.6l92.8-84.4L562.7,214.1z"/>
	<path id="Path_655" class="st9" d="M641.8,174.1l-6-29.3L613.4,199L641.8,174.1z"/>
	<path id="Path_656" class="st1" d="M635.8,144.8l-30.1-73.7l-61.9,34.6L635.8,144.8z"/>
	<path id="Path_657" class="st9" d="M566.2,40l24.9-59.5h-94.5L566.2,40z"/>
	<path id="Path_658" class="st3" d="M651.2,244.3l-92.8,84.4l122.9-12.4L651.2,244.3z"/>
	<path id="Path_659" class="st8" d="M100.4,408.6l43-38.2L89.2,397L100.4,408.6z"/>
	<path id="Path_660" class="st10" d="M150.3,329.5l-6.9,40.8l38.7-55.1L150.3,329.5z"/>
	<path id="Path_661" class="st6" d="M605.7,71.1l-7.7-16h-33.5L605.7,71.1z"/>
	<path id="Path_662" class="st7" d="M107.3,168.8l-7.7,31.1l68.7-8.9L107.3,168.8z"/>
	<path id="Path_663" class="st10" d="M109.9,238.1L97,250.5l53.3,79L109.9,238.1z"/>
	<path id="Path_664" class="st0" d="M181.2,439.7l76.5-6.2l-39.5-51.5L181.2,439.7z"/>
	<path id="Path_665" class="st6" d="M346.2,513.4l0.9-139.4l-51.6,21.3L346.2,513.4z"/>
	<path id="Path_666" class="st0" d="M83.2,221.2L97,250.5l12.9-12.4L83.2,221.2z"/>
	<path id="Path_667" class="st6" d="M623.7,373.9l-65.3-45.3l-0.9,45.3H623.7z"/>
	<path id="Path_668" class="st0" d="M646.9,226.5l49,24l-54.1-76.4L646.9,226.5z"/>
	<path id="Path_669" class="st7" d="M346.2,513.4l-50.7-118.1l24.9,118.1H346.2z"/>
	<path id="Path_670" class="st7" d="M320.4,513.4l-24.9-118.1l-37.8,38.2L320.4,513.4z"/>
	<path id="Path_671" class="st5" d="M143.4,370.4l18.9,48.8l55.9-37.3L143.4,370.4z"/>
	<path id="Path_672" class="st6" d="M162.3,419.2l18.9,20.4l37-57.7L162.3,419.2z"/>
	<path id="Path_673" class="st5" d="M107.3,168.8l-15.5-20.4l7.7,51.5L107.3,168.8z"/>
	<path id="Path_674" class="st6" d="M99.6,199.9l-16.3,21.3l26.6,16.9L99.6,199.9z"/>
	<path id="Path_675" class="st6" d="M148.5,106.6l-56.7,41.7l60.2-23.1L148.5,106.6z"/>
	<path id="Path_676" class="st7" d="M129.6,50.7l18.9,55.9l18.9-23.1L129.6,50.7z"/>
	<path id="Path_677" class="st10" d="M254.2,513.4h66.2l-79.1-42.6L254.2,513.4z"/>
	<path id="Path_678" class="st3" d="M241.3,470.7l79.1,42.6l-62.7-79.9L241.3,470.7z"/>
	<path id="Path_679" class="st4" d="M72.1,214.1l11.2,7.1l16.3-21.3L72.1,214.1z"/>
	<path id="Path_680" class="st0" d="M100.4,408.6l61.9,10.7l-18.9-48.8L100.4,408.6z"/>
	<path id="Path_681" class="st8" d="M105.6,427.2l21.5,16.9l35.2-24.9L105.6,427.2z"/>
	<path id="Path_682" class="st3" d="M620.3,403.2l3.4-29.3h-66.2L620.3,403.2z"/>
	<path id="Path_683" class="st10" d="M174.3-19.5L152,22.3l78.2,6.2L174.3-19.5z"/>
	<path id="Path_684" class="st8" d="M152,22.3l-22.3,28.4l37.8,32.9L152,22.3z"/>
	<path id="Path_685" class="st5" d="M359.1,513.4h91.1l-7.7-99.5L359.1,513.4z"/>
	<path id="Path_686" class="st6" d="M530.1,445.9l45.5-4.4l-18-67.5L530.1,445.9z"/>
	<path id="Path_687" class="st5" d="M549,513.4l26.6-71.9l-45.5,4.4L549,513.4z"/>
	<path id="Path_688" class="st0" d="M450.2,513.4h17.2L450.2,413V513.4z"/>
	<path id="Path_689" class="st5" d="M91.8,148.4l-19.8,65.7l27.5-14.2L91.8,148.4z"/>
	<path id="Path_690" class="st6" d="M83.2,221.2l-11.2-7.1L97,250.5L83.2,221.2z"/>
	<path id="Path_691" class="st3" d="M359.1,513.4l98.8,6.2l-7.7-6.2H359.1z"/>
	<path id="Path_692" class="st8" d="M450.2,513.4l7.7,6.2l9.5-6.2H450.2z"/>
	<path id="Path_693" class="st1" d="M516.3,529.3l-58.4-9.8l-98.8-6.2L516.3,529.3z"/>
	<path id="Path_694" class="st9" d="M516.3,529.3l-157.3-16h-12.9L516.3,529.3z"/>
	<path id="Path_695" class="st1" d="M575.6,441.4l44.7-38.2l-62.7-29.3L575.6,441.4z"/>
	<path id="Path_696" class="st2" d="M623.7,373.9l57.6-57.7l-122.9,12.4L623.7,373.9z"/>
	<path id="Path_697" class="st7" d="M239.6-19.5h-65.3l55.9,48L239.6-19.5z"/>
	<path id="Path_698" class="st8" d="M152,22.3l-48.1-16l25.8,44.4L152,22.3z"/>
	<path id="Path_699" class="st1" d="M436.4-31L174.3-19.5h65.3L436.4-31z"/>
	<path id="Path_700" class="st4" d="M211.3,524.9l43-11.5l-12.9-42.6L211.3,524.9z"/>
	<path id="Path_701" class="st7" d="M211.3,524.9l305.1,4.4l-170.1-16L211.3,524.9z"/>
	<path id="Path_702" class="st10" d="M615.2-19.5L598,55.1l92.8-81.7L615.2-19.5z"/>
	<path id="Path_703" class="st7" d="M615.2-19.5h-24.1l6.9,74.6L615.2-19.5z"/>
	<path id="Path_704" class="st6" d="M598,55.1l-6.9-74.6L566.2,40L598,55.1z"/>
	<path id="Path_705" class="st2" d="M496.6-19.5h94.5L436.4-31L496.6-19.5z"/>
	<path id="Path_706" class="st4" d="M690.8,394.4l-9.5-78.1l-57.6,57.7L690.8,394.4z"/>
	<path id="Path_707" class="st10" d="M651.2,244.3l44.7,6.2l-49-24L651.2,244.3z"/>
	<path id="Path_708" class="st4" d="M641.8,174.1l65.3-71l-71.3,41.7L641.8,174.1z"/>
	<path id="Path_709" class="st10" d="M681.3,316.2l14.6-65.7l-44.7-6.2L681.3,316.2z"/>
	<path id="Path_710" class="st9" d="M690.8-26.6L598,55.1l7.7,16L690.8-26.6z"/>
	<path id="Path_711" class="st8" d="M575.6,441.4l67.9-33.7l-23.2-4.4L575.6,441.4z"/>
	<path id="Path_712" class="st8" d="M620.3,403.2l23.2,4.4l-19.8-33.7L620.3,403.2z"/>
	<path id="Path_713" class="st6" d="M640.1,513.4l3.4-105.7l-67.9,33.7L640.1,513.4z"/>
	<path id="Path_714" class="st10" d="M516.3,529.3l13.7-83.5l-62.7,67.5L516.3,529.3z"/>
	<path id="Path_715" class="st2" d="M174.3-19.5L128.8-7.9L152,22.3L174.3-19.5z"/>
	<path id="Path_716" class="st1" d="M129.6,50.7L27.4-0.8l64.5,149.2L129.6,50.7z"/>
	<path id="Path_717" class="st0" d="M91.8,148.4l-74.8,76.4l55-10.7L91.8,148.4z"/>
	<path id="Path_718" class="st9" d="M162.3,419.2l-35.2,24.9l54.1-4.4L162.3,419.2z"/>
	<path id="Path_719" class="st9" d="M181.2,439.7l30.1,85.3l30.1-54.2L181.2,439.7z"/>
	<path id="Path_720" class="st10" d="M143.4,370.4l6.9-40.8l-61,67.5L143.4,370.4z"/>
	<path id="Path_721" class="st2" d="M98.7,409.5l1.7-0.9L89.2,397L98.7,409.5z"/>
	<path id="Path_722" class="st2" d="M89.2,397l61-67.5l-53.3-79L89.2,397z"/>
	<path id="Path_723" class="st2" d="M100.4,408.6l5.2,18.6l56.7-8L100.4,408.6z"/>
	<path id="Path_724" class="st3" d="M211.3,524.9l134.9-11.5h-25.8L211.3,524.9z"/>
	<path id="Path_725" class="st2" d="M457.9,519.6l58.4,9.8l-49-16L457.9,519.6z"/>
	<path id="Path_726" class="st2" d="M19.6,373.9L89.2,397L97,250.5L19.6,373.9z"/>
	<path id="Path_727" class="st7" d="M707.1,103.1l-101.4-32l30.1,73.7L707.1,103.1z"/>
	<path id="Path_728" class="st10" d="M591.1-19.5l99.7-7.1L436.4-31L591.1-19.5z"/>
	<path id="Path_729" class="st9" d="M516.3,529.3l32.7-16l-18.9-67.5L516.3,529.3z"/>
	<path id="Path_730" class="st5" d="M681.3,316.2l24.9-51.5l-10.3-14.2L681.3,316.2z"/>
	<path id="Path_731" class="st3" d="M740.6,151l-33.5-48l-65.3,71L740.6,151z"/>
	<path id="Path_732" class="st0" d="M740.6,333.1l-34.4-68.4l-24.9,51.5L740.6,333.1z"/>
	<path id="Path_733" class="st5" d="M54.9,426.3l50.7,0.9l-6.9-17.8L54.9,426.3z"/>
	<path id="Path_734" class="st6" d="M98.7,409.5l6.9,17.8l-5.2-18.6L98.7,409.5z"/>
	<path id="Path_735" class="st0" d="M153.7,513.4l57.6,11.5l-30.1-85.3L153.7,513.4z"/>
	<path id="Path_736" class="st8" d="M254.2,513.4l-43,11.5l109.1-11.5H254.2z"/>
	<path id="Path_737" class="st1" d="M153.7,513.4l27.5-73.7l-54.1,4.4L153.7,513.4z"/>
	<path id="Path_738" class="st10" d="M128.8-7.9L103.8,6.3l48.1,16L128.8-7.9z"/>
	<path id="Path_739" class="st3" d="M740.6,227.4l-98.8-53.3l54.1,76.4L740.6,227.4z"/>
	<path id="Path_740" class="st1" d="M-32.8,145.7l49.8,79l74.8-76.4L-32.8,145.7z"/>
	<path id="Path_741" class="st0" d="M72.1,214.1l-55,10.7L97,250.5L72.1,214.1z"/>
	<path id="Path_742" class="st2" d="M671,513.4l19.8-119l-47.3,13.3L671,513.4z"/>
	<path id="Path_743" class="st4" d="M643.5,407.7l47.3-13.3l-67-20.4L643.5,407.7z"/>
	<path id="Path_744" class="st4" d="M124.5,513.4h29.2l-26.6-69.3L124.5,513.4z"/>
	<path id="Path_745" class="st4" d="M740.6,235.4l-44.7,15.1l10.3,14.2L740.6,235.4z"/>
	<path id="Path_746" class="st8" d="M740.6,235.4v-8l-44.7,23.1L740.6,235.4z"/>
	<path id="Path_747" class="st3" d="M740.6,333.1v-97.7l-34.4,29.3L740.6,333.1z"/>
	<path id="Path_748" class="st3" d="M128.8-7.9L83.2-19.5l20.6,25.8L128.8-7.9z"/>
	<path id="Path_749" class="st2" d="M103.9,6.3L27.4-0.8l102.3,51.5L103.9,6.3z"/>
	<path id="Path_750" class="st2" d="M174.3-19.5H83.2l45.5,11.5L174.3-19.5z"/>
	<path id="Path_751" class="st0" d="M436.4-31L83.2-19.5h91.1L436.4-31z"/>
	<path id="Path_752" class="st7" d="M740.6,227.4V151l-98.8,23.1L740.6,227.4z"/>
	<path id="Path_753" class="st2" d="M740.6,235.4l8.6-14.2l-8.6,6.2V235.4z"/>
	<path id="Path_754" class="st5" d="M740.6,227.4l8.6-6.2l-8.6-70.2V227.4z"/>
	<path id="Path_755" class="st6" d="M740.6,333.1l8.6-111.9l-8.6,14.2V333.1z"/>
	<path id="Path_756" class="st6" d="M89.2,397l-34.4,29.3l43.8-16.9L89.2,397z"/>
	<path id="Path_757" class="st10" d="M118.5,513.4h6l2.6-69.3L118.5,513.4z"/>
	<path id="Path_758" class="st8" d="M19.6,373.9l35.2,52.4L89.2,397L19.6,373.9z"/>
	<path id="Path_759" class="st5" d="M749.2,221.2l-5.2-79.9l-3.4,9.8L749.2,221.2z"/>
	<path id="Path_760" class="st9" d="M740.6,151l3.4-9.8l-37-38.2L740.6,151z"/>
	<path id="Path_761" class="st5" d="M707.1,103.1L690.8-26.6l-85.1,97.7L707.1,103.1z"/>
	<path id="Path_762" class="st10" d="M83.2-19.5L70.3-15l33.5,21.3L83.2-19.5z"/>
	<path id="Path_763" class="st4" d="M118.5,513.4l8.6-69.3l-21.5-16.9L118.5,513.4z"/>
	<path id="Path_764" class="st4" d="M153.7,513.4h-29.2l86.8,11.5L153.7,513.4z"/>
	<path id="Path_765" class="st5" d="M744.1,141.3l-3.4-30.2l-33.5-8L744.1,141.3z"/>
	<path id="Path_766" class="st8" d="M54.9,426.3l63.6,87l-12.9-86.1L54.9,426.3z"/>
	<path id="Path_767" class="st3" d="M124.5,513.4h-6l92.8,11.5L124.5,513.4z"/>
	<path id="Path_768" class="st9" d="M740.6,362.4v-29.3l-59.3-16.9L740.6,362.4z"/>
	<path id="Path_769" class="st9" d="M-32.8,312.7l52.4,61.3L97,250.5L-32.8,312.7z"/>
	<path id="Path_770" class="st0" d="M549,513.4h91.1l-64.5-71.9L549,513.4z"/>
	<path id="Path_771" class="st10" d="M690.8,394.4l49.8-32l-59.3-46.2L690.8,394.4z"/>
	<path id="Path_772" class="st3" d="M516.3,529.3l123.7-16H549L516.3,529.3z"/>
	<path id="Path_773" class="st10" d="M740.6,386.4v-24l-49.8,32L740.6,386.4z"/>
	<path id="Path_774" class="st7" d="M740.6,333.1l30.1,41.7l-21.5-153.6L740.6,333.1z"/>
	<path id="Path_775" class="st8" d="M740.6,32.9l-49.8-59.5l16.3,129.7L740.6,32.9z"/>
	<path id="Path_776" class="st1" d="M615.2-19.5l75.6-7.1l-99.7,7.1H615.2z"/>
	<path id="Path_777" class="st0" d="M516.3,529.3l135.8-16h-12L516.3,529.3z"/>
	<path id="Path_778" class="st7" d="M640.1,513.4h12l-8.6-105.7L640.1,513.4z"/>
	<path id="Path_779" class="st10" d="M436.4-31L46.3-19.5h37L436.4-31z"/>
	<path id="Path_780" class="st3" d="M83.2-19.5h-37L70.3-15L83.2-19.5z"/>
	<path id="Path_781" class="st1" d="M70.3-15l-43,14.2l76.5,7.1L70.3-15z"/>
	<path id="Path_782" class="st1" d="M740.6,404.1v-17.8l-49.8,8L740.6,404.1z"/>
	<path id="Path_783" class="st8" d="M740.6,362.4l30.1,12.4l-30.1-41.7V362.4z"/>
	<path id="Path_784" class="st9" d="M46.3-19.5L27.4-0.8l43-14.2L46.3-19.5z"/>
	<path id="Path_785" class="st5" d="M-32.8,145.7v92.4l49.8-13.3L-32.8,145.7z"/>
	<path id="Path_786" class="st5" d="M17.1,224.8l-49.8,87.9L97,250.5L17.1,224.8z"/>
	<path id="Path_787" class="st6" d="M671,513.4l69.6-109.2l-49.8-9.8L671,513.4z"/>
	<path id="Path_788" class="st7" d="M740.6,386.4l30.1-11.5l-30.1-12.4V386.4z"/>
	<path id="Path_789" class="st2" d="M756.1,46.3l-15.5-13.3l-33.5,70.2L756.1,46.3z"/>
	<path id="Path_790" class="st1" d="M756.1,46.3l-49,56.8l33.5,8L756.1,46.3z"/>
	<path id="Path_791" class="st10" d="M756.1,46.3l-15.5,64.8l3.4,30.2L756.1,46.3z"/>
	<path id="Path_792" class="st6" d="M516.3,529.3l154.7-16h-18.9L516.3,529.3z"/>
	<path id="Path_793" class="st7" d="M652.1,513.4H671l-27.5-105.7L652.1,513.4z"/>
	<path id="Path_794" class="st10" d="M-32.8,143.9v1.8l124.6,2.7L-32.8,143.9z"/>
	<path id="Path_795" class="st0" d="M-32.8,130.6v13.3l124.6,4.4L-32.8,130.6z"/>
	<path id="Path_796" class="st4" d="M46.3-19.5H29.9L27.4-0.8L46.3-19.5z"/>
	<path id="Path_797" class="st8" d="M-32.8,71.1v59.5l124.6,17.8L-32.8,71.1z"/>
	<path id="Path_798" class="st10" d="M436.4-31L29.9-19.5h16.3L436.4-31z"/>
	<path id="Path_799" class="st0" d="M-32.8,71.1l124.6,77.3L27.4-0.8L-32.8,71.1z"/>
	<path id="Path_800" class="st3" d="M-32.8,238.1v74.6l49.8-87.9L-32.8,238.1z"/>
	<path id="Path_801" class="st0" d="M19.6,373.9l-53.3,38.2l88.5,14.2L19.6,373.9z"/>
	<path id="Path_802" class="st6" d="M54.9,426.3l-87.7,87h151.2L54.9,426.3z"/>
	<path id="Path_803" class="st4" d="M749.2,221.2l6.9-174.9l-12,95L749.2,221.2z"/>
	<path id="Path_804" class="st1" d="M740.6,32.9v-52.4l-49.8-7.1L740.6,32.9z"/>
	<path id="Path_805" class="st5" d="M740.6,404.1l30.1-29.3l-30.1,11.5V404.1z"/>
	<path id="Path_806" class="st7" d="M749.2,221.2l21.5,153.6L756.1,46.3L749.2,221.2z"/>
	<path id="Path_807" class="st4" d="M740.6,513.4l30.1-138.5l-30.1,29.3V513.4z"/>
	<path id="Path_808" class="st6" d="M-62,326l29.2-13.3v-74.6L-62,326z"/>
	<path id="Path_809" class="st10" d="M-62,326l25.8,19.5l3.4-32.9L-62,326z"/>
	<path id="Path_810" class="st3" d="M-32.8,312.7l-3.4,32.9l55.9,28.4L-32.8,312.7z"/>
	<path id="Path_811" class="st6" d="M-62,326l29.2-87.9v-92.4L-62,326z"/>
	<path id="Path_812" class="st2" d="M-62,326l29.2-180.3L-52.6,21.4L-62,326z"/>
	<path id="Path_813" class="st0" d="M-52.6,21.4l19.8,49.7L27.4-0.8L-52.6,21.4z"/>
	<path id="Path_814" class="st4" d="M-52.6,21.4l19.8,124.3v-1.8L-52.6,21.4z"/>
	<path id="Path_815" class="st0" d="M761.2-19.5h-20.6v52.4L761.2-19.5z"/>
	<path id="Path_816" class="st2" d="M-36.2,345.5l3.4,35.5l52.4-7.1L-36.2,345.5z"/>
	<path id="Path_817" class="st6" d="M-62,326l29.2,76.4V381L-62,326z"/>
	<path id="Path_818" class="st5" d="M-32.8,381v21.3l52.4-28.4L-32.8,381z"/>
	<path id="Path_819" class="st10" d="M-52.6,21.4l19.8,122.5v-13.3L-52.6,21.4z"/>
	<path id="Path_820" class="st1" d="M-36.2,345.5L-62,326l29.2,55.1L-36.2,345.5z"/>
	<path id="Path_821" class="st3" d="M-62,326l28.4,86.1l0.9-9.8L-62,326z"/>
	<path id="Path_822" class="st10" d="M-32.8,402.4l-0.9,9.8l53.3-38.2L-32.8,402.4z"/>
	<path id="Path_823" class="st9" d="M770.7,374.8l-9.5-394.3l-5.2,65.7L770.7,374.8z"/>
	<path id="Path_824" class="st3" d="M756.1,46.3l5.2-65.7l-20.6,52.4L756.1,46.3z"/>
	<path id="Path_825" class="st4" d="M740.6-19.5h20.6l-70.5-7.1L740.6-19.5z"/>
	<path id="Path_826" class="st1" d="M516.3,529.3l224.3-16H671L516.3,529.3z"/>
	<path id="Path_827" class="st6" d="M671,513.4h69.6V404.1L671,513.4z"/>
	<path id="Path_828" class="st3" d="M-32.8-19.5l-19.8,40.8L27.4-0.8L-32.8-19.5z"/>
	<path id="Path_829" class="st3" d="M-32.8,71.1l-19.8-49.7l19.8,109.2V71.1z"/>
	<path id="Path_830" class="st6" d="M436.4-31L-32.8-19.5h62.7L436.4-31z"/>
	<path id="Path_831" class="st7" d="M29.9-19.5h-62.7L27.4-0.8L29.9-19.5z"/>
	<path id="Path_832" class="st10" d="M-59.4,513.4l26.6-47.1l-0.9-54.2L-59.4,513.4z"/>
	<path id="Path_833" class="st7" d="M-33.6,412.1l0.9,54.2l87.7-40L-33.6,412.1z"/>
	<path id="Path_834" class="st5" d="M-59.4,513.4h26.6v-47.1L-59.4,513.4z"/>
	<path id="Path_835" class="st1" d="M-32.8,466.3v47.1l87.7-87L-32.8,466.3z"/>
	<path id="Path_836" class="st7" d="M118.5,513.4H-32.8l244.1,11.5L118.5,513.4z"/>
	<path id="Path_837" class="st8" d="M-62,326l2.6,187.4l25.8-101.2L-62,326z"/>
	<path id="Path_838" class="st4" d="M-32.8,513.4h-26.6l270.7,11.5L-32.8,513.4z"/>
</g>
</svg>
